<svg width="22" height="22" viewBox="0 0 22 22" xmlns="http://www.w3.org/2000/svg">
    <g fill="#8CF29F" fill-rule="nonzero">
        <path d="M14.879 7.988c2.16 0 3.913 1.713 3.913 3.826v4.526c0 2.113-1.752 3.827-3.913 3.827H7.12c-2.16 0-3.913-1.714-3.913-3.827v-4.526c0-2.113 1.752-3.826 3.913-3.826zm-3.884 4.281a.802.802 0 0 0-.81.792v2.023c0 .446.363.801.81.801.457 0 .82-.355.82-.801V13.06a.804.804 0 0 0-.82-.792z"/>
        <path d="M16.063 6.78v1.348a3.807 3.807 0 0 0-1.025-.137h-.605V6.78c0-1.85-1.537-3.353-3.428-3.353S7.577 4.921 7.568 6.761v1.23h-.596c-.364 0-.708.046-1.034.146V6.78c.009-2.733 2.272-4.947 5.048-4.947 2.813 0 5.077 2.214 5.077 4.947" opacity=".4"/>
    </g>
</svg>
