<svg width="20" height="19" viewBox="0 0 20 19" xmlns="http://www.w3.org/2000/svg">
    <g fill="#8CF29F" fill-rule="nonzero">
        <path d="M14.027 5.542c1 0 2.05.72 2.42 2.47l.61 4.904c.447 3.197-1.351 4.5-3.765 4.5H6.73c-2.42 0-4.275-.9-3.771-4.5l.616-4.904c.315-1.8 1.4-2.47 2.414-2.47zM7.702 8.177a.71.71 0 0 0-.7.72c0 .398.313.72.7.72a.71.71 0 0 0 .7-.72L8.394 8.8a.707.707 0 0 0-.693-.623zm4.583 0a.71.71 0 0 0-.7.72c0 .398.313.72.7.72a.71.71 0 0 0 .7-.72.71.71 0 0 0-.7-.72z"/>
        <path d="M13.938 5.363a.397.397 0 0 1-.035.179h-1.138a.514.514 0 0 1-.034-.179 2.753 2.753 0 0 0-2.758-2.749 2.753 2.753 0 0 0-2.758 2.749c.01.06.01.12 0 .179H6.049a.514.514 0 0 1 0-.179 3.952 3.952 0 0 1 3.955-3.78 3.952 3.952 0 0 1 3.954 3.78h-.02z" opacity=".4"/>
    </g>
</svg>
