<svg width="20" height="20" viewBox="0 0 20 20" xmlns="http://www.w3.org/2000/svg">
    <g fill="none" fill-rule="evenodd">
        <path d="M0 0h20v20H0z"/>
        <g fill="#8CF29F" fill-rule="nonzero">
            <path d="M3.877 6.385A.881.881 0 0 1 3 5.5c0-.49.393-.886.877-.886l7.158.191c.38 0 .688.311.688.695a.69.69 0 0 1-.688.694l-7.158.191z" opacity=".4"/>
            <path d="M18.281 6.16c-.034.033-.16.177-.278.297-.69.748-2.493 1.972-3.436 2.347-.143.06-.506.187-.7.196-.185 0-.362-.043-.53-.128a1.1 1.1 0 0 1-.472-.527 5.71 5.71 0 0 1-.152-.621c-.092-.502-.143-1.318-.143-2.22 0-.859.05-1.641.126-2.151.009-.01.102-.58.203-.775.185-.357.547-.578.935-.578h.033c.253.008.784.23.784.238.892.374 2.653 1.54 3.36 2.314 0 0 .2.199.287.323.135.178.202.4.202.62 0 .247-.076.477-.219.664"/>
            <g>
                <path d="M16.623 12.615c.484 0 .877.396.877.885a.881.881 0 0 1-.877.886l-7.158-.191a.691.691 0 0 1-.688-.695.69.69 0 0 1 .688-.694l7.158-.191z" opacity=".4"/>
                <path d="M2.219 12.84c.034-.033.16-.177.278-.297.69-.748 2.493-1.972 3.436-2.347.143-.06.506-.187.7-.196.185 0 .362.043.53.128a1.1 1.1 0 0 1 .472.527c.06.153.152.613.152.621.092.502.143 1.318.143 2.22 0 .859-.05 1.641-.126 2.151-.009.01-.102.58-.203.775a1.059 1.059 0 0 1-.935.578h-.033c-.253-.008-.784-.23-.784-.238-.892-.374-2.653-1.54-3.36-2.314 0 0-.2-.199-.287-.323a1.031 1.031 0 0 1-.202-.62c0-.247.076-.477.219-.664"/>
            </g>
        </g>
    </g>
</svg>
