<svg width="20" height="20" viewBox="0 0 20 20" xmlns="http://www.w3.org/2000/svg">
    <g fill="none" fill-rule="evenodd">
        <path d="M0 0h20v20H0z"/>
        <g fill="#8CF29F" fill-rule="nonzero">
            <path d="M13.143 2.5H6.857c-2.28 0-3.607 1.335-3.607 3.623v7.747c0 2.325 1.327 3.63 3.607 3.63h6.286c2.317 0 3.607-1.305 3.607-3.63V6.123c0-2.288-1.29-3.623-3.607-3.623" opacity=".4"/>
            <path d="M7.06 12.805h5.88c.3.03.525.285.525.593 0 .299-.226.555-.525.585H7.06a.583.583 0 0 1-.562-.27.596.596 0 0 1 .562-.908zm5.88-3.42a.586.586 0 0 1 0 1.17H7.06a.585.585 0 0 1 0-1.17h5.88zM9.302 5.987c.323 0 .585.262.585.584 0 .33-.262.593-.585.593H7.06a.585.585 0 0 1 0-1.17v-.008h2.242z"/>
        </g>
    </g>
</svg>
