<svg width="20" height="20" viewBox="0 0 20 20" xmlns="http://www.w3.org/2000/svg">
    <g fill="none" fill-rule="evenodd">
        <path d="M0 0h20v20H0z"/>
        <g fill="#8CF29F" fill-rule="nonzero">
            <path d="M13.057 2.5h2.54c1.05 0 1.903.86 1.903 1.92v2.56c0 1.061-.852 1.92-1.904 1.92h-2.54a1.912 1.912 0 0 1-1.903-1.92V4.42c0-1.06.852-1.92 1.904-1.92" opacity=".4"/>
            <path d="M6.943 11.1c1.052 0 1.904.859 1.904 1.92v2.56c0 1.06-.852 1.92-1.904 1.92h-2.54A1.912 1.912 0 0 1 2.5 15.58v-2.56c0-1.061.852-1.92 1.904-1.92h2.54zm8.653 0c1.052 0 1.904.859 1.904 1.92v2.56c0 1.06-.852 1.92-1.904 1.92h-2.54a1.912 1.912 0 0 1-1.903-1.92v-2.56c0-1.061.852-1.92 1.904-1.92h2.54zM6.943 2.5c1.052 0 1.904.86 1.904 1.92v2.56c0 1.061-.852 1.92-1.904 1.92h-2.54A1.912 1.912 0 0 1 2.5 6.98V4.42c0-1.06.852-1.92 1.904-1.92h2.54z"/>
        </g>
    </g>
</svg>
