<svg width="20" height="20" viewBox="0 0 20 20" xmlns="http://www.w3.org/2000/svg">
    <g fill="none" fill-rule="evenodd">
        <path d="M0 0h20v20H0z"/>
        <g fill="#8CF29F" fill-rule="nonzero">
            <path d="M10 17.5c-4.136 0-7.5-3.365-7.5-7.5 0-4.136 3.364-7.5 7.5-7.5s7.5 3.365 7.5 7.5c0 4.136-3.365 7.5-7.5 7.5" opacity=".4"/>
            <path d="M10.056 5.995c.743 0 1.343.21 1.8.63.458.42.686.982.686 1.687 0 .788-.243 1.371-.73 1.75-.488.378-1.148.568-1.98.568l-.035 1.069H8.91L8.864 9.92h.326c.742 0 1.324-.112 1.744-.337.42-.225.63-.65.63-1.272 0-.45-.135-.806-.405-1.068-.27-.263-.634-.394-1.092-.394-.465 0-.83.125-1.096.377-.267.251-.4.594-.4 1.03h-.967c0-.45.1-.847.303-1.188a2.05 2.05 0 0 1 .861-.793c.371-.187.8-.281 1.288-.281zm-.709 8.01a.673.673 0 0 1-.495-.203.673.673 0 0 1-.202-.495c0-.195.067-.36.202-.495a.673.673 0 0 1 .495-.202c.188 0 .347.067.479.202.13.135.196.3.196.495s-.065.36-.196.495a.642.642 0 0 1-.479.203z"/>
        </g>
    </g>
</svg>
