<svg width="54" height="54" viewBox="0 0 54 54" xmlns="http://www.w3.org/2000/svg" xmlns:xlink="http://www.w3.org/1999/xlink">
    <defs>
        <linearGradient x1="12.74%" y1="13.679%" x2="100%" y2="100%" id="7va5jgpzrc">
            <stop stop-color="#FF5BD9" offset="0%"/>
            <stop stop-color="#E02CB8" offset="56.736%"/>
            <stop stop-color="#C9089E" offset="100%"/>
        </linearGradient>
        <linearGradient x1="0%" y1=".099%" x2="91.809%" y2="92.619%" id="ljabd1wizf">
            <stop stop-color="#FFF" stop-opacity=".638" offset="0%"/>
            <stop stop-color="#D51BAB" offset="100%"/>
        </linearGradient>
        <filter x="-39.8%" y="-39.8%" width="179.5%" height="179.5%" filterUnits="objectBoundingBox" id="j6ie9u7m3a">
            <feOffset dy="4" in="SourceAlpha" result="shadowOffsetOuter1"/>
            <feGaussianBlur stdDeviation="1.5" in="shadowOffsetOuter1" result="shadowBlurOuter1"/>
            <feColorMatrix values="0 0 0 0 0.0526498379 0 0 0 0 0.155429121 0 0 0 0 0.115803374 0 0 0 0.838833042 0" in="shadowBlurOuter1" result="shadowMatrixOuter1"/>
            <feMerge>
                <feMergeNode in="shadowMatrixOuter1"/>
                <feMergeNode in="SourceGraphic"/>
            </feMerge>
        </filter>
        <filter x="-8.3%" y="-8.3%" width="116.7%" height="116.7%" filterUnits="objectBoundingBox" id="cb5swam4sd">
            <feGaussianBlur stdDeviation="1" in="SourceAlpha" result="shadowBlurInner1"/>
            <feOffset dx="2" dy="2" in="shadowBlurInner1" result="shadowOffsetInner1"/>
            <feComposite in="shadowOffsetInner1" in2="SourceAlpha" operator="arithmetic" k2="-1" k3="1" result="shadowInnerInner1"/>
            <feColorMatrix values="0 0 0 0 0 0 0 0 0 0 0 0 0 0 0 0 0 0 0.260981206 0" in="shadowInnerInner1"/>
        </filter>
        <rect id="ycqk763drb" x="4.971" y="4.971" width="24" height="24" rx="3"/>
        <path d="m11.067 6.719 12.084.482a3 3 0 0 1 2.878 3.106l-.404 11.197a3 3 0 0 1-2.893 2.89l-11.185.392a3 3 0 0 1-3.103-2.875L7.95 9.839a3 3 0 0 1 3.117-3.12z" id="anp2akrtle"/>
    </defs>
    <g filter="url(#j6ie9u7m3a)" transform="translate(10 10)" fill="none" fill-rule="evenodd">
        <g transform="rotate(45 16.97 16.97)">
            <use fill="url(#7va5jgpzrc)" xlink:href="#ycqk763drb"/>
            <use fill="#000" filter="url(#cb5swam4sd)" xlink:href="#ycqk763drb"/>
            <rect stroke-opacity=".09" stroke="#000" stroke-linejoin="square" x="5.471" y="5.471" width="23" height="23" rx="3"/>
        </g>
        <mask id="dg1wnx6tbg" fill="#fff">
            <use xlink:href="#anp2akrtle"/>
        </mask>
        <use fill="url(#ljabd1wizf)" transform="rotate(45 16.977 15.74)" xlink:href="#anp2akrtle"/>
        <path d="M13.665 18.276c.71-.64.94-1.542.514-2.015-.426-.473-1.347-.339-2.057.3-.71.64-.94 1.542-.514 2.015.426.473 1.347.339 2.057-.3zM16.354 12.11c1.304-1.398 1.605-3.235.673-4.104-.931-.869-2.743-.44-4.046.957-1.303 1.398-1.604 3.235-.673 4.104.932.868 2.743.44 4.046-.958z" fill="#DEF5EC" mask="url(#dg1wnx6tbg)"/>
    </g>
</svg>
