<svg width="22" height="22" viewBox="0 0 22 22" xmlns="http://www.w3.org/2000/svg">
    <g transform="translate(1.833 2.75)" fill="#8CF29F" fill-rule="nonzero">
        <path d="M13.304 0c3.16 0 5.026 1.814 5.026 4.893v.034h-3.882c-1.806.003-3.27 1.43-3.273 3.192-.002 1.765 1.463 3.198 3.273 3.2h3.885v.28c0 3.08-1.866 4.901-5.025 4.901H5.027C1.867 16.5 0 14.68 0 11.6V4.893C0 1.813 1.867 0 5.027 0zM9.518 3.552H4.345a.693.693 0 0 0-.699.682.693.693 0 0 0 .699.686h5.18a.693.693 0 0 0 .698-.687.694.694 0 0 0-.705-.681z"/>
        <path d="M12.868 8.522a1.85 1.85 0 0 0 1.829 1.47h2.979c.363 0 .657-.301.657-.673v-2.32a.667.667 0 0 0-.657-.674h-3.05c-.992.003-1.794.827-1.793 1.843 0 .119.012.237.035.354" opacity=".4"/>
        <circle cx="14.667" cy="8.158" r="1"/>
    </g>
</svg>
